Movie Info


Plot: 

A drama centered on a rising country-music songwriter
who sparks with a fallen star. Together, they mount his ascent and her comeback,
which leads to romantic complications involving her husband/manager and
a beauty queen-turned-singer.


IMDB: 
 
http://www.imdb.com/title/tt1555064/

IMDB Rating: 5.4

Trailer:



General Info

Size: 1.24GB
Format: AVI
Runtime: 1:56:23



Sources

Video - Country Strong 2010 PPVRIP IFLIX
Audio - Country Strong 2010 PPVRIP IFLIX
(Thanks)



Video Info

ID : 0
Format : MPEG-4 Visual
Format profile : Advanced Simple@L5
Format settings, BVOP : Yes
Format settings, QPel : No
Format settings, GMC : No warppoints
Format settings, Matrix : Default (H.263)
Muxing mode : Packed bitstream
Codec ID : XVID
Codec ID/Hint : XviD
Duration : 1h 56mn
Bit rate : 1 392 Kbps
Width : 704 pixels
Height : 384 pixels
Display aspect ratio : 16:9
Frame rate : 29.970 fps
Color space : YUV
Chroma subsampling : 4:2:0
Bit depth : 8 bits
Scan type : Progressive
Compression mode : Lossy
Bits/(Pixel*Frame) : 0.172
Stream size : 1.13 GiB (91%)
Writing library : XviD 1.0.3 (UTC 2004-12-20)



Audio Info

ID : 1
Format : MPEG Audio
Format version : Version 1
Format profile : Layer 3
Mode : Joint stereo
Mode extension : MS Stereo
Codec ID : 55
Codec ID/Hint : MP3
Duration : 1h 56mn
Bit rate mode : Constant
Bit rate : 128 Kbps
Channel(s) : 2 channels
Sampling rate : 44.1 KHz
Compression mode : Lossy
Stream size : 106 MiB (8%)
Alignment : Split accross interleaves
Interleave, duration : 33 ms (1.00 video frame)
Interleave, preload duration : 500 ms



Encoders Notes

I made an avs script to crop, resize & sharpen.
I dropped that into vdubmod & lowered the brightness.
Then i increased the contrast, de-noised it &
changed the colors with a rgb eq.
Finaly i re-encoded the audio & muxed it to the video.
Its not great, but deffinatley watchable.
Better than most cams/ts's imo.
Download the sample first to check that your happy with the quality.
Enjoy...



I am looking for:

Cammers, Cams, Screeners (any type), Cam audio, Line audio,
Un-released R6's R5's R4's R2's R1's,
A 25GB+ FTP server, A Windows Server
& a syncer.
If you can provide any of these please
contact me at illusion@hushmail.me



Greetz & Respect:

ChattChitto RG, Hunter, iNK, DiNGiE, Recalled2Life, Chaos,
SERENiTY, IFLIX, Demedic, ELEKTRI4KA, MotleyCrue, Feel-Free,
KRG, every uploader & encoder out there.





================================== 
http://thepiratebay.org/user/hiest
==================================





Screenz:
 
http://leetleech.org/images/81553974426166890078.jpg
 
http://leetleech.org/images/75848257976532917170.jpg
 
http://leetleech.org/images/72342868032029927463.jpg
 
http://leetleech.org/images/53747399357408216346.jpg
 
http://leetleech.org/images/47661186437193865265.jpg
 
http://leetleech.org/images/26796066086725047086.jpg